# xmcd
#
# Track frame offsets: 
#        183
#        16708
#        34633
#        46933
#        68008
#        85858
#        103333
#        122708
#        140133
#        156033
#        173358
#        194008
#        213358
#        232358
#        251708
#
# Disc length: 3603 seconds
#
# Revision: 3
# Processed by: cddbd v1.5.2PL0 Copyright (c) Steve Scherf et al.
# Submitted via: ExactAudioCopy v0.99pb5
#
DISCID=cf0e110f
DTITLE=Various Artist - Lookin' Forward V
DYEAR=1990
DGENRE=Pop
TTITLE0=Plan B - Discontentment
TTITLE1=Franz Benton and Sarah Jane Morris - Carry on
TTITLE2=Boys In Trouble - A new England
TTITLE3=Melissa Etheridge - The angels
TTITLE4=Romeo's Daughter - Heaven in the back seat
TTITLE5=Chris Thompson - Take me to heaven
TTITLE6=Bayernpower - Maedls tragts mi hoam
TTITLE7=Moses P. - Raining rhymes
TTITLE8=Off - La casa latina
TTITLE9=Rob'n'Raz feat. Leila K. - Got to get
TTITLE10=Urban Dance Squad - Deeper shade of soul
TTITLE11=Stone Roses - Fools gold
TTITLE12=Bourbon Club - Keeping our house together
TTITLE13=Snap! - The power
TTITLE14=Ruby Turner - It's gonna be alright
EXTD=
EXTT0=
EXTT1=
EXTT2=
EXTT3=
EXTT4=
EXTT5=
EXTT6=
EXTT7=
EXTT8=
EXTT9=
EXTT10=
EXTT11=
EXTT12=
EXTT13=
EXTT14=
PLAYORDER=
